<?xml version="1.0" encoding="UTF-8" standalone="no"?>
<svg
   height="24"
   id="Layer_1"
   version="1.1"
   viewBox="0 0 24 24"
   width="24"
   xml:space="preserve"
   sodipodi:docname="add.svg"
   inkscape:version="1.2.1 (9c6d41e410, 2022-07-14)"
   xmlns:inkscape="http://www.inkscape.org/namespaces/inkscape"
   xmlns:sodipodi="http://sodipodi.sourceforge.net/DTD/sodipodi-0.dtd"
   xmlns="http://www.w3.org/2000/svg"
   xmlns:svg="http://www.w3.org/2000/svg"><defs
     id="defs601" /><sodipodi:namedview
     id="namedview599"
     pagecolor="#ffffff"
     bordercolor="#666666"
     borderopacity="1.0"
     inkscape:showpageshadow="2"
     inkscape:pageopacity="0.0"
     inkscape:pagecheckerboard="0"
     inkscape:deskcolor="#d1d1d1"
     showgrid="false"
     inkscape:zoom="11.821942"
     inkscape:cx="2.4530658"
     inkscape:cy="16.66393"
     inkscape:window-width="1366"
     inkscape:window-height="715"
     inkscape:window-x="-8"
     inkscape:window-y="-8"
     inkscape:window-maximized="1"
     inkscape:current-layer="Layer_1" /><path
     d="M 20.571429,10.571429 H 13.428571 V 3.4285714 C 13.428571,2.64 12.788571,2 12,2 11.211429,2 10.571429,2.64 10.571429,3.4285714 V 10.571429 H 3.4285714 C 2.64,10.571429 2,11.211429 2,12 c 0,0.788571 0.64,1.428571 1.4285714,1.428571 h 7.1428576 v 7.142858 C 10.571429,21.36 11.211429,22 12,22 c 0.788571,0 1.428571,-0.64 1.428571,-1.428571 v -7.142858 h 7.142858 C 21.36,13.428571 22,12.788571 22,12 22,11.211429 21.36,10.571429 20.571429,10.571429 Z"
     id="path596"
     style="stroke-width:0.714286" /></svg>
