<?xml version="1.0" encoding="UTF-8" standalone="no"?>
<svg
   width="24"
   height="24"
   viewBox="0 0 24 24"
   version="1.1"
   id="svg8632"
   sodipodi:docname="media-control-pause.svg"
   inkscape:version="1.2.1 (9c6d41e410, 2022-07-14)"
   xmlns:inkscape="http://www.inkscape.org/namespaces/inkscape"
   xmlns:sodipodi="http://sodipodi.sourceforge.net/DTD/sodipodi-0.dtd"
   xmlns="http://www.w3.org/2000/svg"
   xmlns:svg="http://www.w3.org/2000/svg">
  <defs
     id="defs8636">
    <inkscape:path-effect
       effect="fillet_chamfer"
       id="path-effect9742"
       is_visible="true"
       lpeversion="1"
       nodesatellites_param="F,0,0,1,0,2,0,1 @ F,0,0,1,0,2,0,1 @ F,0,0,1,0,2,0,1 @ F,0,0,1,0,2,0,1 | F,0,0,1,0,2,0,1 @ F,0,0,1,0,2,0,1 @ F,0,0,1,0,2,0,1 @ F,0,0,1,0,2,0,1"
       unit="px"
       method="auto"
       mode="F"
       radius="2"
       chamfer_steps="1"
       flexible="false"
       use_knot_distance="true"
       apply_no_radius="true"
       apply_with_radius="true"
       only_selected="false"
       hide_knots="false" />
  </defs>
  <sodipodi:namedview
     id="namedview8634"
     pagecolor="#ffffff"
     bordercolor="#666666"
     borderopacity="1.0"
     inkscape:showpageshadow="2"
     inkscape:pageopacity="0.0"
     inkscape:pagecheckerboard="0"
     inkscape:deskcolor="#d1d1d1"
     showgrid="false"
     inkscape:zoom="15.762589"
     inkscape:cx="7.48608"
     inkscape:cy="11.67321"
     inkscape:window-width="1366"
     inkscape:window-height="715"
     inkscape:window-x="-8"
     inkscape:window-y="-8"
     inkscape:window-maximized="1"
     inkscape:current-layer="svg8632" />
  <path
     d="M 8,24 H 6 A 2,2 45 0 1 4,22 V 2 A 2,2 135 0 1 6,0 h 2 a 2,2 45 0 1 2,2 V 22 A 2,2 135 0 1 8,24 Z M 18,0 h -2 a 2,2 135 0 0 -2,2 l 0,20 a 2,2 45 0 0 2,2 h 2 a 2,2 135 0 0 2,-2 V 2 A 2,2 45 0 0 18,0 Z"
     id="path8630"
     inkscape:path-effect="#path-effect9742"
     inkscape:original-d="M10 24h-6v-24h6v24zm10-24h-6v24h6v-24z" />
</svg>
