<?xml version="1.0" encoding="UTF-8" standalone="no"?>
<svg
   version="1.1"
   id="Layer_1"
   x="0px"
   y="0px"
   viewBox="0 0 24.000001 24"
   xml:space="preserve"
   sodipodi:docname="update-arrows.svg"
   width="24"
   height="24"
   inkscape:version="1.2.1 (9c6d41e410, 2022-07-14)"
   xmlns:inkscape="http://www.inkscape.org/namespaces/inkscape"
   xmlns:sodipodi="http://sodipodi.sourceforge.net/DTD/sodipodi-0.dtd"
   xmlns="http://www.w3.org/2000/svg"
   xmlns:svg="http://www.w3.org/2000/svg"><defs
     id="defs7956"><inkscape:path-effect
       effect="fillet_chamfer"
       id="path-effect9772"
       is_visible="true"
       lpeversion="1"
       nodesatellites_param="F,0,0,1,0,1,0,1 @ F,0,0,1,0,1,0,1 @ F,0,0,1,0,1,0,1 @ F,0,0,1,0,1,0,1 @ F,0,0,1,0,1,0,1 @ F,0,0,1,0,1,0,1 | F,0,0,1,0,1,0,1 @ F,0,0,1,0,1,0,1 @ F,0,0,1,0,1,0,1 @ F,0,0,1,0,1,0,1 @ F,0,0,1,0,1,0,1 @ F,0,0,1,0,1,0,1"
       unit="px"
       method="auto"
       mode="F"
       radius="1"
       chamfer_steps="1"
       flexible="false"
       use_knot_distance="true"
       apply_no_radius="true"
       apply_with_radius="true"
       only_selected="false"
       hide_knots="false" /></defs><sodipodi:namedview
     id="namedview7954"
     pagecolor="#ffffff"
     bordercolor="#666666"
     borderopacity="1.0"
     inkscape:showpageshadow="2"
     inkscape:pageopacity="0.0"
     inkscape:pagecheckerboard="0"
     inkscape:deskcolor="#d1d1d1"
     showgrid="false"
     inkscape:zoom="8"
     inkscape:cx="8.25"
     inkscape:cy="17.25"
     inkscape:window-width="1366"
     inkscape:window-height="715"
     inkscape:window-x="-8"
     inkscape:window-y="-8"
     inkscape:window-maximized="1"
     inkscape:current-layer="Layer_1" /><style
     type="text/css"
     id="style7947">.st0{fill-rule:evenodd;clip-rule:evenodd;}</style><path
     class="st0"
     d="M 12.8176,3.6283223 11.637152,9.6277001 A 0.41107566,0.41107566 168.78505 0 1 10.891263,9.7755924 L 10.408867,9.048464 C 10.103548,8.5882481 9.4379675,8.3776051 8.9422674,8.6208315 6.4003539,9.8680788 4.8488484,11.719 4.3598184,14.348074 4.2588652,14.890809 4.0017909,14.952127 3.7673171,14.452253 1.8053557,10.26956 3.0891333,6.5249749 5.9048382,4.0644737 6.3205715,3.7011855 6.4393766,3.0691156 6.1338029,2.6090687 L 5.6183127,1.8329886 A 0.41110288,0.41110288 124.05927 0 1 6.0442045,1.202985 L 12.031478,2.4441504 A 1.0101771,1.0101771 56.421493 0 1 12.8176,3.6283223 Z m -1.635201,16.7433557 1.18045,-5.999377 a 0.41107587,0.41107587 168.78505 0 1 0.745889,-0.147892 l 0.482396,0.727127 c 0.305319,0.460216 0.970901,0.670862 1.466592,0.427616 2.541678,-1.247256 4.092098,-3.098189 4.582038,-5.7272801 0.101134,-0.5427013 0.358446,-0.6039982 0.59292,-0.1041248 1.96196,4.1826939 0.678183,7.9272789 -2.137522,10.3877799 -0.415733,0.363288 -0.534728,0.995484 -0.229389,1.455686 l 0.514548,0.775517 a 0.41137417,0.41137417 124.07513 0 1 -0.426307,0.630241 l -5.985502,-1.241077 a 1.010222,1.010222 56.422782 0 1 -0.786113,-1.184216 z"
     id="path7949"
     inkscape:path-effect="#path-effect9772"
     inkscape:original-d="M 13.01066,2.6471354 11.444092,10.608887 9.8560379,8.2151694 C 6.4346516,9.588379 4.5135904,11.85319 4.2289224,15.33903 1.4180499,10.426271 3.1260577,6.0219728 6.687093,3.4420573 L 5.0650226,1 Z m -2.021321,18.7057296 1.56657,-7.961751 1.588054,2.393717 c 3.421386,-1.37321 5.340656,-3.638021 5.627116,-7.1238606 2.81087,4.9127596 1.102864,9.3170576 -2.458172,11.8969726 L 18.933187,23 Z"
     style="stroke-width:0.179036" /></svg>
