<?xml version="1.0" encoding="UTF-8" standalone="no"?>
<!-- Cassette icon by Arthur Shlain from Usefulicons.com -->

<svg
   xml:space="preserve"
   version="1.1"
   x="0px"
   y="0px"
   viewBox="0 0 89.871613 55"
   width="359.48645"
   height="220"
   id="svg152"
   sodipodi:docname="cassette.svg"
   inkscape:version="1.2.1 (9c6d41e410, 2022-07-14)"
   xmlns:inkscape="http://www.inkscape.org/namespaces/inkscape"
   xmlns:sodipodi="http://sodipodi.sourceforge.net/DTD/sodipodi-0.dtd"
   xmlns="http://www.w3.org/2000/svg"
   xmlns:svg="http://www.w3.org/2000/svg"><defs
     id="defs156" /><sodipodi:namedview
     id="namedview154"
     pagecolor="#ffffff"
     bordercolor="#666666"
     borderopacity="1.0"
     inkscape:showpageshadow="2"
     inkscape:pageopacity="0.0"
     inkscape:pagecheckerboard="0"
     inkscape:deskcolor="#d1d1d1"
     showgrid="false"
     inkscape:zoom="1.1725"
     inkscape:cx="139.01919"
     inkscape:cy="40.085288"
     inkscape:window-width="1366"
     inkscape:window-height="715"
     inkscape:window-x="-8"
     inkscape:window-y="-8"
     inkscape:window-maximized="1"
     inkscape:current-layer="svg152" /><path
     d="M 17.92365,43.75 14.96265,55 h 59.957 l -2.961,-11.25 z m 5.768,10 c -1.378,0 -2.5,-1.122 -2.5,-2.5 0,-1.378 1.122,-2.5 2.5,-2.5 1.378,0 2.5,1.122 2.5,2.5 0,1.378 -1.122,2.5 -2.5,2.5 z m 8.75,-1.25 c -1.378,0 -2.5,-1.122 -2.5,-2.5 0,-1.378 1.122,-2.5 2.5,-2.5 1.378,0 2.5,1.122 2.5,2.5 0,1.378 -1.122,2.5 -2.5,2.5 z m 12.5,-5 c -0.69,0 -1.25,-0.56 -1.25,-1.25 0,-0.69 0.56,-1.25 1.25,-1.25 0.69,0 1.25,0.56 1.25,1.25 0,0.69 -0.56,1.25 -1.25,1.25 z m 12.5,5 c -1.378,0 -2.5,-1.122 -2.5,-2.5 0,-1.378 1.122,-2.5 2.5,-2.5 1.378,0 2.5,1.122 2.5,2.5 0,1.378 -1.122,2.5 -2.5,2.5 z m 8.75,1.25 c -1.378,0 -2.5,-1.122 -2.5,-2.5 0,-1.378 1.122,-2.5 2.5,-2.5 1.378,0 2.5,1.122 2.5,2.5 0,1.378 -1.122,2.5 -2.5,2.5 z"
     stroke="none"
     id="path132" /><path
     d="M 85.95365,0 H 3.6916503 c -1.39,0 -2.525,1.11 -2.556,2.499 L 6.5034136e-4,52.386 C -0.03134966,53.82 1.1216503,55 2.5566503,55 H 13.70265 c 0,-0.053 -0.005,-0.106 0.009,-0.159 l 3.248,-12.341 h 55.964 l 3.248,12.341 c 0.014,0.054 0.009,0.106 0.009,0.159 h 11.134 c 1.439,0 2.595,-1.187 2.556,-2.626 L 88.50865,2.487 C 88.47165,1.103 87.33865,0 85.95365,0 Z M 2.4416503,53.75 c -0.69,0 -1.25,-0.56 -1.25,-1.25 0,-0.69 0.56,-1.25 1.25,-1.25 0.69,0 1.25,0.56 1.25,1.25 0,0.69 -0.56,1.25 -1.25,1.25 z m 1.25,-50 c -0.69,0 -1.25,-0.56 -1.25,-1.25 0,-0.69 0.56,-1.25 1.25,-1.25 0.69,0 1.25,0.56 1.25,1.25 0,0.69 -0.56,1.25 -1.25,1.25 z M 84.94165,40 H 4.9416503 V 6.616 l 2.866,-2.866 H 82.07565 l 2.866,2.866 z m 0,-37.5 c 0,-0.69 0.56,-1.25 1.25,-1.25 0.69,0 1.25,0.56 1.25,1.25 0,0.69 -0.56,1.25 -1.25,1.25 -0.69,0 -1.25,-0.56 -1.25,-1.25 z m 2.5,51.25 c -0.69,0 -1.25,-0.56 -1.25,-1.25 0,-0.69 0.56,-1.25 1.25,-1.25 0.69,0 1.25,0.56 1.25,1.25 0,0.69 -0.56,1.25 -1.25,1.25 z"
     stroke="none"
     id="path134" /><path
     id="path136"
     d="M 8.3256836,5 6.1914063,7.1337891 V 38.75 H 83.691406 V 7.1337891 L 81.557617,5 Z M 36.378906,21.831543 h 17.129395 c -0.294724,1.540524 -0.443819,3.105366 -0.445313,4.673828 0.0015,1.568462 0.150589,3.133304 0.445313,4.673828 H 36.375 c 0.294559,-1.54054 0.443491,-3.105381 0.444824,-4.673828 -4.6e-5,-1.568324 -0.147669,-3.133164 -0.440918,-4.673828 z"
     sodipodi:nodetypes="cccccccccccccc" /><path
     d="m 56.19165,50 c 0,-0.691 0.559,-1.25 1.25,-1.25 0.691,0 1.25,0.559 1.25,1.25 0,0.691 -0.559,1.25 -1.25,1.25 -0.691,0 -1.25,-0.559 -1.25,-1.25 z"
     stroke="none"
     id="path142" /><path
     d="m 31.19165,50 c 0,-0.691 0.559,-1.25 1.25,-1.25 0.691,0 1.25,0.559 1.25,1.25 0,0.691 -0.559,1.25 -1.25,1.25 -0.691,0 -1.25,-0.559 -1.25,-1.25 z"
     stroke="none"
     id="path144" /><path
     d="m 22.44165,51.25 c 0,-0.691 0.559,-1.25 1.25,-1.25 0.691,0 1.25,0.559 1.25,1.25 0,0.691 -0.559,1.25 -1.25,1.25 -0.691,0 -1.25,-0.559 -1.25,-1.25 z"
     stroke="none"
     id="path146" /><path
     d="m 64.94165,51.25 c 0,-0.691 0.559,-1.25 1.25,-1.25 0.691,0 1.25,0.559 1.25,1.25 0,0.691 -0.559,1.25 -1.25,1.25 -0.691,0 -1.25,-0.559 -1.25,-1.25 z"
     stroke="none"
     id="path148" /><rect
     style="fill:#1a1a1a;fill-opacity:1;stroke:none;stroke-width:0.211176;stroke-miterlimit:4.6;paint-order:markers stroke fill"
     id="rect773"
     width="61.205677"
     height="5.7292233"
     x="14.338812"
     y="9.4000244" /></svg>
